#N canvas 456 23 1378 925 10;
#X obj 219 710 dac~;
#X obj 80 22 receive fromGUI;
#X obj 79 56 route list;
#N canvas 456 23 1089 963 voice1 0;
#X obj 377 253 hsl 128 15 0 1 0 0 empty empty empty -2 -8 0 10 -262144
-1 -1 7001 1;
#X floatatom 374 280 5 0 0 0 - - -, f 5;
#X floatatom 514 344 5 0 0 0 - - -, f 5;
#X msg 652 370 /pitch \$1;
#X floatatom 652 343 5 0 0 0 - - -, f 5;
#X msg 514 368 /length \$1;
#X obj 326 651 jump~, f 16;
#X msg 435 168 /loop \$1;
#X obj 435 144 tgl 15 0 empty empty empty 17 7 0 10 -262144 -1 -1 0
1;
#X obj 656 253 hsl 128 15 0 1 0 0 empty empty empty -2 -8 0 10 -262144
-1 -1 2260 1;
#X obj 653 282 * 4;
#X obj 751 306 metro 125;
#X obj 751 278 tgl 15 0 empty empty empty 17 7 0 10 -262144 -1 -1 0
1;
#X obj 751 338 int;
#X obj 811 328 + 1;
#X obj 811 355 % 16;
#X floatatom 751 525 5 0 0 0 - - -, f 5;
#X obj 518 253 hsl 128 15 0 1 0 0 empty empty empty -2 -8 0 10 -262144
-1 -1 3821 1;
#X floatatom 874 525 5 0 0 0 - - -, f 5;
#X text 820 304 sequences;
#X obj 751 400 tabread starts1;
#X obj 874 400 tabread pitches1;
#X obj 214 105 route /startsMulti1 /pitchesMulti1 /play1 /loop1 /seq1
/start1 /length1 /pitch1 /bpm1, f 111;
#X obj 751 652 send toGUI;
#X msg 751 586 list /start1 \$1;
#X obj 802 253 expr 60000/$f1;
#X floatatom 802 234 5 0 0 0 - - -, f 5;
#X floatatom 802 283 5 0 0 0 - - -, f 5;
#X text 840 230 bpm;
#X text 843 281 ms;
#X floatatom 802 166 5 0 0 0 - - -, f 5;
#X msg 874 586 list /pitch1 \$1;
#X obj 802 189 * 800;
#X msg 374 311 /start \$1;
#X msg 329 253 /play;
#X obj 357 202 t b b;
#X obj 724 552 t b f;
#X obj 802 210 + 50;
#X obj 214 22 inlet;
#X obj 28 215 list split 1;
#X obj 116 214 t l;
#X obj 28 187 t l l;
#X obj 70 240 list length;
#X obj 54 290 - 1;
#X obj 54 265 int;
#X obj 28 241 t f b;
#X obj 148 217 list split 1;
#X obj 232 217 t l;
#X obj 148 189 t l l;
#X obj 190 242 list length;
#X obj 174 292 - 1;
#X obj 174 267 int;
#X obj 148 243 t f b;
#X obj 30 326 tabwrite starts1;
#X obj 30 348 table starts1 16;
#X obj 150 350 table pitches1 16;
#X obj 150 328 tabwrite pitches1;
#X obj 653 309 + 0.6;
#X obj 326 761 outlet~;
#X obj 419 762 outlet~;
#X obj 268 22 inlet;
#X obj 357 169 select 1;
#X obj 515 319 + 5;
#X obj 514 290 * 100;
#X connect 0 0 1 0;
#X connect 1 0 33 0;
#X connect 2 0 5 0;
#X connect 3 0 6 0;
#X connect 4 0 3 0;
#X connect 5 0 6 0;
#X connect 6 0 58 0;
#X connect 6 1 59 0;
#X connect 7 0 6 0;
#X connect 8 0 7 0;
#X connect 9 0 10 0;
#X connect 10 0 57 0;
#X connect 11 0 13 0;
#X connect 12 0 11 0;
#X connect 13 0 14 0;
#X connect 13 0 20 0;
#X connect 13 0 21 0;
#X connect 14 0 15 0;
#X connect 15 0 13 1;
#X connect 16 0 36 0;
#X connect 17 0 63 0;
#X connect 18 0 31 0;
#X connect 20 0 16 0;
#X connect 21 0 18 0;
#X connect 22 0 41 0;
#X connect 22 1 48 0;
#X connect 22 2 61 0;
#X connect 22 3 8 0;
#X connect 22 4 12 0;
#X connect 22 5 0 0;
#X connect 22 6 17 0;
#X connect 22 7 9 0;
#X connect 22 8 30 0;
#X connect 24 0 23 0;
#X connect 25 0 27 0;
#X connect 26 0 25 0;
#X connect 27 0 11 1;
#X connect 30 0 32 0;
#X connect 31 0 23 0;
#X connect 32 0 37 0;
#X connect 33 0 6 0;
#X connect 34 0 6 0;
#X connect 35 0 34 0;
#X connect 35 1 0 0;
#X connect 36 0 34 0;
#X connect 36 1 24 0;
#X connect 37 0 26 0;
#X connect 38 0 22 0;
#X connect 39 0 45 0;
#X connect 39 1 40 0;
#X connect 40 0 39 0;
#X connect 41 0 39 0;
#X connect 41 1 42 0;
#X connect 42 0 44 1;
#X connect 43 0 44 1;
#X connect 43 0 53 1;
#X connect 44 0 43 0;
#X connect 45 0 53 0;
#X connect 45 1 44 0;
#X connect 46 0 52 0;
#X connect 46 1 47 0;
#X connect 47 0 46 0;
#X connect 48 0 46 0;
#X connect 48 1 49 0;
#X connect 49 0 51 1;
#X connect 50 0 51 1;
#X connect 50 0 56 1;
#X connect 51 0 50 0;
#X connect 52 0 56 0;
#X connect 52 1 51 0;
#X connect 57 0 4 0;
#X connect 60 0 6 0;
#X connect 61 0 35 0;
#X connect 62 0 2 0;
#X connect 63 0 62 0;
#X restore 220 244 pd voice1;
#N canvas 268 23 1089 842 voice2 0;
#X obj 377 253 hsl 128 15 0 1 0 0 empty empty empty -2 -8 0 10 -262144
-1 -1 5777 1;
#X floatatom 374 280 5 0 0 0 - - -, f 5;
#X floatatom 514 344 5 0 0 0 - - -, f 5;
#X msg 652 370 /pitch \$1;
#X floatatom 652 343 5 0 0 0 - - -, f 5;
#X msg 514 368 /length \$1;
#X obj 326 651 jump~, f 16;
#X msg 435 168 /loop \$1;
#X obj 435 144 tgl 15 0 empty empty empty 17 7 0 10 -262144 -1 -1 0
1;
#X obj 656 253 hsl 128 15 0 1 0 0 empty empty empty -2 -8 0 10 -262144
-1 -1 7702 1;
#X obj 653 282 * 4;
#X obj 751 306 metro 125;
#X obj 751 278 tgl 15 0 empty empty empty 17 7 0 10 -262144 -1 -1 0
1;
#X obj 751 338 int;
#X obj 811 328 + 1;
#X obj 811 355 % 16;
#X floatatom 751 525 5 0 0 0 - - -, f 5;
#X obj 518 253 hsl 128 15 0 1 0 0 empty empty empty -2 -8 0 10 -262144
-1 -1 280 1;
#X floatatom 874 525 5 0 0 0 - - -, f 5;
#X text 820 304 sequences;
#X obj 751 652 send toGUI;
#X obj 802 253 expr 60000/$f1;
#X floatatom 802 234 5 0 0 0 - - -, f 5;
#X floatatom 802 283 5 0 0 0 - - -, f 5;
#X text 840 230 bpm;
#X text 843 281 ms;
#X floatatom 802 166 5 0 0 0 - - -, f 5;
#X obj 802 189 * 800;
#X msg 374 311 /start \$1;
#X msg 329 253 /play;
#X obj 361 199 t b b;
#X obj 724 552 t b f;
#X obj 802 210 + 50;
#X obj 214 22 inlet;
#X obj 28 215 list split 1;
#X obj 116 214 t l;
#X obj 28 187 t l l;
#X obj 70 240 list length;
#X obj 54 290 - 1;
#X obj 54 265 int;
#X obj 28 241 t f b;
#X obj 148 217 list split 1;
#X obj 232 217 t l;
#X obj 148 189 t l l;
#X obj 190 242 list length;
#X obj 174 292 - 1;
#X obj 174 267 int;
#X obj 148 243 t f b;
#X obj 653 309 + 0.6;
#X obj 326 761 outlet~;
#X obj 419 762 outlet~;
#X obj 268 22 inlet;
#X obj 214 105 route /startsMulti2 /pitchesMulti2 /play2 /loop2 /seq2
/start2 /length2 /pitch2 /bpm2, f 111;
#X obj 30 348 table starts2 16;
#X obj 150 350 table pitches2 16;
#X obj 30 326 tabwrite starts2;
#X obj 150 328 tabwrite pitches2;
#X obj 751 400 tabread starts2;
#X obj 874 400 tabread pitches2;
#X msg 751 586 list /start2 \$1;
#X msg 874 586 list /pitch2 \$1;
#X obj 357 169 select 1;
#X obj 515 290 * 100;
#X obj 515 319 + 5;
#X connect 0 0 1 0;
#X connect 1 0 28 0;
#X connect 2 0 5 0;
#X connect 3 0 6 0;
#X connect 4 0 3 0;
#X connect 5 0 6 0;
#X connect 6 0 49 0;
#X connect 6 1 50 0;
#X connect 7 0 6 0;
#X connect 8 0 7 0;
#X connect 9 0 10 0;
#X connect 10 0 48 0;
#X connect 11 0 13 0;
#X connect 12 0 11 0;
#X connect 13 0 14 0;
#X connect 13 0 57 0;
#X connect 13 0 58 0;
#X connect 14 0 15 0;
#X connect 15 0 13 1;
#X connect 16 0 31 0;
#X connect 17 0 62 0;
#X connect 18 0 60 0;
#X connect 21 0 23 0;
#X connect 22 0 21 0;
#X connect 23 0 11 1;
#X connect 26 0 27 0;
#X connect 27 0 32 0;
#X connect 28 0 6 0;
#X connect 29 0 6 0;
#X connect 30 0 29 0;
#X connect 30 1 0 0;
#X connect 31 0 29 0;
#X connect 31 1 59 0;
#X connect 32 0 22 0;
#X connect 33 0 52 0;
#X connect 34 0 40 0;
#X connect 34 1 35 0;
#X connect 35 0 34 0;
#X connect 36 0 34 0;
#X connect 36 1 37 0;
#X connect 37 0 39 1;
#X connect 38 0 39 1;
#X connect 38 0 55 1;
#X connect 39 0 38 0;
#X connect 40 0 55 0;
#X connect 40 1 39 0;
#X connect 41 0 47 0;
#X connect 41 1 42 0;
#X connect 42 0 41 0;
#X connect 43 0 41 0;
#X connect 43 1 44 0;
#X connect 44 0 46 1;
#X connect 45 0 46 1;
#X connect 45 0 56 1;
#X connect 46 0 45 0;
#X connect 47 0 56 0;
#X connect 47 1 46 0;
#X connect 48 0 4 0;
#X connect 51 0 6 0;
#X connect 52 0 36 0;
#X connect 52 1 43 0;
#X connect 52 2 61 0;
#X connect 52 3 8 0;
#X connect 52 4 12 0;
#X connect 52 5 0 0;
#X connect 52 6 17 0;
#X connect 52 7 9 0;
#X connect 52 8 26 0;
#X connect 57 0 16 0;
#X connect 58 0 18 0;
#X connect 59 0 20 0;
#X connect 60 0 20 0;
#X connect 61 0 30 0;
#X connect 62 0 63 0;
#X connect 63 0 2 0;
#X restore 516 249 pd voice2;
#N canvas 0 22 829 636 xfade 0;
#X obj 340 41 inlet~;
#X obj 607 31 inlet;
#X obj 176 282 *~;
#X text 608 12 crossfade;
#X obj 83 43 inlet~;
#X obj 83 282 *~;
#X obj 83 312 +~;
#X obj 83 444 outlet~;
#X obj 191 204 sin;
#X obj 98 204 cos;
#X obj 607 93 * 2;
#X obj 607 122 / 4;
#X obj 607 144 * 3.14159;
#X floatatom 607 166 5 0 0 0 - - -, f 5;
#X obj 191 253 line~;
#X obj 98 253 line~;
#X obj 98 226 pack f 100;
#X obj 191 226 pack f 100;
#X obj 292 444 outlet~;
#X obj 385 41 inlet~;
#X obj 385 280 *~;
#X obj 143 42 inlet~;
#X obj 292 280 *~;
#X obj 292 310 +~;
#X obj 400 202 sin;
#X obj 307 202 cos;
#X obj 400 251 line~;
#X obj 307 251 line~;
#X obj 307 224 pack f 100;
#X obj 400 224 pack f 100;
#X text 81 25 1L;
#X text 141 24 1R;
#X text 341 22 2L;
#X text 386 22 2R, f 38;
#X connect 0 0 2 0;
#X connect 1 0 10 0;
#X connect 2 0 6 1;
#X connect 4 0 5 0;
#X connect 5 0 6 0;
#X connect 6 0 7 0;
#X connect 8 0 17 0;
#X connect 9 0 16 0;
#X connect 10 0 11 0;
#X connect 11 0 12 0;
#X connect 12 0 13 0;
#X connect 13 0 8 0;
#X connect 13 0 9 0;
#X connect 13 0 25 0;
#X connect 13 0 24 0;
#X connect 14 0 2 1;
#X connect 15 0 5 1;
#X connect 16 0 15 0;
#X connect 17 0 14 0;
#X connect 19 0 20 0;
#X connect 20 0 23 1;
#X connect 21 0 22 0;
#X connect 22 0 23 0;
#X connect 23 0 18 0;
#X connect 24 0 29 0;
#X connect 25 0 28 0;
#X connect 26 0 20 1;
#X connect 27 0 22 1;
#X connect 28 0 27 0;
#X connect 29 0 26 0;
#X restore 219 403 pd xfade;
#X obj 1049 119 route /xfade /effects;
#X obj 1052 151 hsl 128 15 0 1 0 0 empty empty empty -2 -8 0 10 -262144
-1 -1 6015 1;
#X obj 1047 238 unpack 0 0;
#X floatatom 1048 279 5 0 0 0 - - -, f 5;
#X floatatom 1104 278 5 0 0 0 - - -, f 5;
#N canvas 0 22 1036 698 quadmix 0;
#X obj 69 43 inlet~;
#X obj 69 502 outlet~;
#X obj 69 155 *~;
#X obj 118 43 inlet~;
#X obj 118 155 *~;
#X obj 168 43 inlet~;
#X obj 168 155 *~;
#X obj 217 43 inlet~;
#X obj 217 155 *~;
#X obj 69 245 +~;
#X obj 118 245 +~;
#X obj 69 399 *~;
#X obj 118 399 *~;
#X obj 69 458 +~;
#X obj 417 264 sin;
#X obj 348 264 cos;
#X obj 348 129 * 2;
#X obj 348 195 / 4;
#X obj 348 217 * 3.14159;
#X floatatom 348 239 5 0 0 0 - - -, f 5;
#X obj 417 319 line~;
#X obj 348 319 line~;
#X obj 615 264 sin;
#X obj 524 264 cos;
#X obj 524 130 * 2;
#X obj 524 196 / 4;
#X obj 524 218 * 3.14159;
#X floatatom 524 240 5 0 0 0 - - -, f 5;
#X obj 615 319 line~;
#X obj 524 319 line~;
#X text 69 27 1;
#X text 119 27 2;
#X text 168 27 3;
#X text 218 27 4;
#X obj 348 287 pack f 50;
#X obj 417 287 pack f 50;
#X obj 524 287 pack f 50;
#X obj 615 287 pack f 50;
#X obj 349 43 inlet;
#X obj 524 43 inlet, f 55;
#X connect 0 0 2 0;
#X connect 2 0 9 0;
#X connect 3 0 6 0;
#X connect 4 0 9 1;
#X connect 5 0 8 0;
#X connect 6 0 10 0;
#X connect 7 0 4 0;
#X connect 8 0 10 1;
#X connect 9 0 11 0;
#X connect 10 0 12 0;
#X connect 11 0 13 0;
#X connect 12 0 13 1;
#X connect 13 0 1 0;
#X connect 14 0 35 0;
#X connect 15 0 34 0;
#X connect 16 0 17 0;
#X connect 17 0 18 0;
#X connect 18 0 19 0;
#X connect 19 0 14 0;
#X connect 19 0 15 0;
#X connect 20 0 4 1;
#X connect 20 0 8 1;
#X connect 21 0 2 1;
#X connect 21 0 6 1;
#X connect 22 0 37 0;
#X connect 23 0 36 0;
#X connect 24 0 25 0;
#X connect 25 0 26 0;
#X connect 26 0 27 0;
#X connect 27 0 22 0;
#X connect 27 0 23 0;
#X connect 28 0 12 1;
#X connect 29 0 11 1;
#X connect 34 0 21 0;
#X connect 35 0 20 0;
#X connect 36 0 29 0;
#X connect 37 0 28 0;
#X connect 38 0 16 0;
#X connect 39 0 24 0;
#X restore 217 590 pd quadmix;
#N canvas 0 22 1036 698 quadmix 0;
#X obj 69 43 inlet~;
#X obj 69 502 outlet~;
#X obj 69 155 *~;
#X obj 118 43 inlet~;
#X obj 118 155 *~;
#X obj 168 43 inlet~;
#X obj 168 155 *~;
#X obj 217 43 inlet~;
#X obj 217 155 *~;
#X obj 69 245 +~;
#X obj 118 245 +~;
#X obj 69 399 *~;
#X obj 118 399 *~;
#X obj 69 458 +~;
#X obj 417 264 sin;
#X obj 348 264 cos;
#X obj 348 129 * 2;
#X obj 348 195 / 4;
#X obj 348 217 * 3.14159;
#X floatatom 348 239 5 0 0 0 - - -, f 5;
#X obj 417 319 line~;
#X obj 348 319 line~;
#X obj 615 264 sin;
#X obj 524 264 cos;
#X obj 524 130 * 2;
#X obj 524 196 / 4;
#X obj 524 218 * 3.14159;
#X floatatom 524 240 5 0 0 0 - - -, f 5;
#X obj 615 319 line~;
#X obj 524 319 line~;
#X text 69 27 1;
#X text 119 27 2;
#X text 168 27 3;
#X text 218 27 4;
#X obj 348 287 pack f 50;
#X obj 417 287 pack f 50;
#X obj 524 287 pack f 50;
#X obj 615 287 pack f 50;
#X obj 349 43 inlet;
#X obj 524 43 inlet, f 55;
#X connect 0 0 2 0;
#X connect 2 0 9 0;
#X connect 3 0 6 0;
#X connect 4 0 9 1;
#X connect 5 0 8 0;
#X connect 6 0 10 0;
#X connect 7 0 4 0;
#X connect 8 0 10 1;
#X connect 9 0 11 0;
#X connect 10 0 12 0;
#X connect 11 0 13 0;
#X connect 12 0 13 1;
#X connect 13 0 1 0;
#X connect 14 0 35 0;
#X connect 15 0 34 0;
#X connect 16 0 17 0;
#X connect 17 0 18 0;
#X connect 18 0 19 0;
#X connect 19 0 14 0;
#X connect 19 0 15 0;
#X connect 20 0 4 1;
#X connect 20 0 8 1;
#X connect 21 0 2 1;
#X connect 21 0 6 1;
#X connect 22 0 37 0;
#X connect 23 0 36 0;
#X connect 24 0 25 0;
#X connect 25 0 26 0;
#X connect 26 0 27 0;
#X connect 27 0 22 0;
#X connect 27 0 23 0;
#X connect 28 0 12 1;
#X connect 29 0 11 1;
#X connect 34 0 21 0;
#X connect 35 0 20 0;
#X connect 36 0 29 0;
#X connect 37 0 28 0;
#X connect 38 0 16 0;
#X connect 39 0 24 0;
#X restore 385 590 pd quadmix;
#N canvas 168 23 1372 933 delay1 0;
#X floatatom 436 191 20 0 0 0 - - -, f 20;
#X floatatom 742 301 0 0 0 0 - - -;
#X obj 742 373 line~;
#X obj 742 349 pack 0 100;
#X obj 742 325 * 0.01;
#X obj 335 380 +~;
#X obj 711 446 *~;
#X text 789 301 <-- feedback (hundredths);
#X obj 711 470 clip~ -1 1;
#X obj 335 43 inlet~;
#X obj 335 473 outlet~;
#X obj 385 43 inlet~;
#X obj 385 379 +~;
#X obj 385 473 outlet~;
#X obj 888 446 *~;
#X obj 888 470 clip~ -1 1;
#X floatatom 950 303 0 0 0 0 - - -;
#X obj 950 375 line~;
#X obj 950 351 pack 0 100;
#X obj 950 327 * 0.01;
#X text 978 302 <-- feedback (hundredths);
#X obj 436 283 line~;
#X floatatom 569 191 20 0 0 0 - - -, f 20;
#X obj 569 282 line~;
#X msg 436 255 \$1 100;
#X msg 569 254 \$1 100;
#X obj 711 494 delwrite~ del1-l 5000;
#X obj 888 494 delwrite~ del1-r 5000;
#X obj 436 335 vd~ del1-l;
#X obj 569 334 vd~ del1-r;
#X msg 436 139 500;
#X msg 742 272 50;
#X msg 950 273 45;
#X obj 519 35 loadbang;
#X obj 519 77 t b b b b;
#X obj 577 36 bng 15 250 50 0 empty empty empty 17 7 0 10 -262144 -1
-1;
#X msg 569 141 525;
#X connect 0 0 24 0;
#X connect 1 0 4 0;
#X connect 2 0 6 1;
#X connect 3 0 2 0;
#X connect 4 0 3 0;
#X connect 5 0 6 0;
#X connect 5 0 10 0;
#X connect 6 0 8 0;
#X connect 8 0 26 0;
#X connect 9 0 5 0;
#X connect 11 0 12 0;
#X connect 12 0 14 0;
#X connect 12 0 13 0;
#X connect 14 0 15 0;
#X connect 15 0 27 0;
#X connect 16 0 19 0;
#X connect 17 0 14 1;
#X connect 18 0 17 0;
#X connect 19 0 18 0;
#X connect 21 0 28 0;
#X connect 22 0 25 0;
#X connect 23 0 29 0;
#X connect 24 0 21 0;
#X connect 25 0 23 0;
#X connect 28 0 5 1;
#X connect 29 0 12 1;
#X connect 30 0 0 0;
#X connect 31 0 1 0;
#X connect 32 0 16 0;
#X connect 33 0 34 0;
#X connect 34 0 30 0;
#X connect 34 1 36 0;
#X connect 34 2 31 0;
#X connect 34 3 32 0;
#X connect 35 0 34 0;
#X connect 36 0 22 0;
#X restore 235 456 pd delay1;
#N canvas 213 23 1372 933 delay2 0;
#X floatatom 436 191 20 0 0 0 - - -, f 20;
#X floatatom 742 301 0 0 0 0 - - -;
#X obj 742 373 line~;
#X obj 742 349 pack 0 100;
#X obj 742 325 * 0.01;
#X obj 335 380 +~;
#X obj 711 446 *~;
#X text 789 301 <-- feedback (hundredths);
#X obj 711 470 clip~ -1 1;
#X obj 335 43 inlet~;
#X obj 335 473 outlet~;
#X obj 385 43 inlet~;
#X obj 385 379 +~;
#X obj 385 473 outlet~;
#X obj 888 446 *~;
#X obj 888 470 clip~ -1 1;
#X floatatom 950 303 0 0 0 0 - - -;
#X obj 950 375 line~;
#X obj 950 351 pack 0 100;
#X obj 950 327 * 0.01;
#X text 978 302 <-- feedback (hundredths);
#X obj 436 283 line~;
#X floatatom 569 191 20 0 0 0 - - -, f 20;
#X obj 569 282 line~;
#X msg 436 255 \$1 100;
#X msg 569 254 \$1 100;
#X obj 519 35 loadbang;
#X obj 519 77 t b b b b;
#X obj 577 36 bng 15 250 50 0 empty empty empty 17 7 0 10 -262144 -1
-1;
#X obj 711 494 delwrite~ del2-l 5000;
#X obj 888 494 delwrite~ del2-r 5000;
#X obj 436 335 vd~ del2-l;
#X obj 569 334 vd~ del2-r;
#X msg 436 139 30;
#X msg 569 141 32;
#X msg 742 272 88;
#X msg 950 273 78;
#X connect 0 0 24 0;
#X connect 1 0 4 0;
#X connect 2 0 6 1;
#X connect 3 0 2 0;
#X connect 4 0 3 0;
#X connect 5 0 6 0;
#X connect 5 0 10 0;
#X connect 6 0 8 0;
#X connect 8 0 29 0;
#X connect 9 0 5 0;
#X connect 11 0 12 0;
#X connect 12 0 14 0;
#X connect 12 0 13 0;
#X connect 14 0 15 0;
#X connect 15 0 30 0;
#X connect 16 0 19 0;
#X connect 17 0 14 1;
#X connect 18 0 17 0;
#X connect 19 0 18 0;
#X connect 21 0 31 0;
#X connect 22 0 25 0;
#X connect 23 0 32 0;
#X connect 24 0 21 0;
#X connect 25 0 23 0;
#X connect 26 0 27 0;
#X connect 27 0 33 0;
#X connect 27 1 34 0;
#X connect 27 2 35 0;
#X connect 27 3 36 0;
#X connect 28 0 27 0;
#X connect 31 0 5 1;
#X connect 32 0 12 1;
#X connect 33 0 0 0;
#X connect 34 0 22 0;
#X connect 35 0 1 0;
#X connect 36 0 16 0;
#X restore 302 456 pd delay2;
#N canvas 213 23 1372 933 delay3 0;
#X floatatom 436 191 20 0 0 0 - - -, f 20;
#X floatatom 742 301 0 0 0 0 - - -;
#X obj 742 373 line~;
#X obj 742 349 pack 0 100;
#X obj 742 325 * 0.01;
#X obj 335 380 +~;
#X obj 711 446 *~;
#X text 789 301 <-- feedback (hundredths);
#X obj 711 470 clip~ -1 1;
#X obj 335 43 inlet~;
#X obj 335 473 outlet~;
#X obj 385 43 inlet~;
#X obj 385 379 +~;
#X obj 385 473 outlet~;
#X obj 888 446 *~;
#X obj 888 470 clip~ -1 1;
#X floatatom 950 303 0 0 0 0 - - -;
#X obj 950 375 line~;
#X obj 950 351 pack 0 100;
#X obj 950 327 * 0.01;
#X text 978 302 <-- feedback (hundredths);
#X obj 436 283 line~;
#X floatatom 569 191 20 0 0 0 - - -, f 20;
#X obj 569 282 line~;
#X msg 436 255 \$1 100;
#X msg 569 254 \$1 100;
#X obj 519 35 loadbang;
#X obj 519 77 t b b b b;
#X obj 577 36 bng 15 250 50 0 empty empty empty 17 7 0 10 -262144 -1
-1;
#X obj 711 493 delwrite~ del3-l 5000;
#X obj 888 494 delwrite~ del3-r 5000;
#X obj 436 335 vd~ del3-l;
#X obj 569 334 vd~ del3-r;
#X msg 569 141 2000;
#X msg 436 139 2300;
#X msg 742 272 20;
#X msg 950 273 22;
#X connect 0 0 24 0;
#X connect 1 0 4 0;
#X connect 2 0 6 1;
#X connect 3 0 2 0;
#X connect 4 0 3 0;
#X connect 5 0 6 0;
#X connect 5 0 10 0;
#X connect 6 0 8 0;
#X connect 8 0 29 0;
#X connect 9 0 5 0;
#X connect 11 0 12 0;
#X connect 12 0 14 0;
#X connect 12 0 13 0;
#X connect 14 0 15 0;
#X connect 15 0 30 0;
#X connect 16 0 19 0;
#X connect 17 0 14 1;
#X connect 18 0 17 0;
#X connect 19 0 18 0;
#X connect 21 0 31 0;
#X connect 22 0 25 0;
#X connect 23 0 32 0;
#X connect 24 0 21 0;
#X connect 25 0 23 0;
#X connect 26 0 27 0;
#X connect 27 0 34 0;
#X connect 27 1 33 0;
#X connect 27 2 35 0;
#X connect 27 3 36 0;
#X connect 28 0 27 0;
#X connect 31 0 5 1;
#X connect 32 0 12 1;
#X connect 33 0 22 0;
#X connect 34 0 0 0;
#X connect 35 0 1 0;
#X connect 36 0 16 0;
#X restore 369 456 pd delay3;
#X obj 333 111 loadbang;
#X obj 333 138 t b b;
#X obj 401 103 bng 15 250 50 0 empty empty empty 17 7 0 10 -262144
-1 -1;
#X msg 334 194 /filename freesound1.wav;
#X msg 634 192 /filename freesound2.wav;
#X text 513 147 these soundfiles are quick mixes from freesound.org
;
#X connect 1 0 2 0;
#X connect 2 0 3 0;
#X connect 2 0 4 0;
#X connect 2 0 6 0;
#X connect 3 0 5 0;
#X connect 3 1 5 1;
#X connect 4 0 5 2;
#X connect 4 1 5 3;
#X connect 5 0 11 0;
#X connect 5 0 13 0;
#X connect 5 0 14 0;
#X connect 5 0 15 0;
#X connect 5 1 12 0;
#X connect 5 1 13 1;
#X connect 5 1 14 1;
#X connect 5 1 15 1;
#X connect 6 0 7 0;
#X connect 6 1 8 0;
#X connect 7 0 5 4;
#X connect 8 0 9 0;
#X connect 8 1 10 0;
#X connect 9 0 11 4;
#X connect 9 0 12 4;
#X connect 10 0 12 5;
#X connect 10 0 11 5;
#X connect 11 0 0 0;
#X connect 12 0 0 1;
#X connect 13 0 11 1;
#X connect 13 1 12 1;
#X connect 14 0 11 2;
#X connect 14 1 12 2;
#X connect 15 0 11 3;
#X connect 15 1 12 3;
#X connect 16 0 17 0;
#X connect 17 0 19 0;
#X connect 17 1 20 0;
#X connect 18 0 17 0;
#X connect 19 0 3 1;
#X connect 20 0 4 1;
