#N canvas 16 147 1368 1001 10;
#X obj 245 22 inlet;
#X obj 245 128 pack s \$0;
#X msg 245 153 read -resize \$1 \$2-L \$2-R;
#X obj 245 224 soundfiler;
#X obj 490 255 f;
#X obj 489 346 *;
#X obj 583 416 *, f 11;
#X obj 619 388 t b f;
#X obj 644 750 tabread4~ \$0-L;
#X obj 736 750 tabread4~ \$0-R;
#X obj 780 414 samplerate~;
#X obj 780 392 loadbang;
#X obj 760 476 * 1000;
#X obj 489 565 pack 0 0 0;
#X obj 760 508 *;
#X obj 675 128 expr 1/$f1;
#X msg 489 598 \$1 \, \$2 \$3;
#X obj 489 630 vline~;
#X obj 760 446 /;
#X obj 760 363 *;
#X obj 810 323 t b f, f 7;
#X obj 644 816 outlet~;
#X obj 736 815 outlet~;
#X obj 644 778 *~;
#X obj 736 776 *~;
#X obj 761 631 vline~;
#X msg 761 599 0 5 \, 1 5 5;
#X obj 489 416 pipe 5;
#X obj 489 382 t f b;
#X obj 200 690 table \$0-L;
#X obj 269 690 table \$0-R;
#X floatatom 760 279 5 0 0 0 - - -, f 5;
#X floatatom 505 204 5 0 0 0 - - -, f 5;
#X floatatom 583 328 5 0 0 0 - - -, f 5;
#X floatatom 675 154 5 0 0 0 - - -, f 5;
#X obj 583 297 +;
#X obj 675 177 t b b f;
#X floatatom 583 205 5 0 0 0 - - -, f 5;
#X obj 478 177 t b f;
#X floatatom 478 152 5 0 0 0 - - -, f 5;
#X obj 836 180 metro;
#X obj 245 65 route /filename /play /start /length /pitch /loop;
#X obj 836 128 tgl 15 0 empty empty empty 17 7 0 10 -262144 -1 -1 0
1;
#X floatatom 760 545 5 0 0 0 - - -, f 5;
#X obj 583 225 * 0.001;
#X connect 0 0 41 0;
#X connect 1 0 2 0;
#X connect 2 0 3 0;
#X connect 3 0 5 1;
#X connect 3 0 7 0;
#X connect 3 0 20 0;
#X connect 4 0 5 0;
#X connect 5 0 28 0;
#X connect 6 0 13 1;
#X connect 7 0 6 0;
#X connect 7 1 6 1;
#X connect 8 0 23 0;
#X connect 9 0 24 0;
#X connect 10 0 18 1;
#X connect 11 0 10 0;
#X connect 12 0 14 0;
#X connect 13 0 16 0;
#X connect 14 0 13 2;
#X connect 14 0 43 0;
#X connect 15 0 34 0;
#X connect 16 0 17 0;
#X connect 17 0 8 0;
#X connect 17 0 9 0;
#X connect 18 0 12 0;
#X connect 19 0 18 0;
#X connect 20 0 19 0;
#X connect 20 1 19 1;
#X connect 23 0 21 0;
#X connect 24 0 22 0;
#X connect 25 0 23 1;
#X connect 25 0 24 1;
#X connect 26 0 25 0;
#X connect 27 0 13 0;
#X connect 28 0 27 0;
#X connect 28 1 26 0;
#X connect 31 0 19 0;
#X connect 32 0 4 1;
#X connect 32 0 35 1;
#X connect 33 0 6 0;
#X connect 34 0 36 0;
#X connect 35 0 33 0;
#X connect 36 0 39 0;
#X connect 36 1 33 0;
#X connect 36 2 14 1;
#X connect 37 0 44 0;
#X connect 38 0 37 0;
#X connect 38 1 32 0;
#X connect 39 0 38 0;
#X connect 40 0 4 0;
#X connect 41 0 1 0;
#X connect 41 1 4 0;
#X connect 41 2 39 0;
#X connect 41 3 37 0;
#X connect 41 4 15 0;
#X connect 41 5 42 0;
#X connect 42 0 40 0;
#X connect 43 0 40 1;
#X connect 44 0 35 0;
#X connect 44 0 31 0;
