#N canvas 454 23 1023 789 10;
#X obj 273 412 dac~;
#N canvas 0 22 450 300 (subpatch) 0;
#X array rec 88200 float 2;
#X coords 0 1 88199 -1 400 140 1 0 0;
#X restore 382 44 graph;
#X obj 71 283 adc~;
#X obj 41 182 bng 15 250 50 0 empty empty empty 17 7 0 10 -262144 -1
-1;
#X obj 273 303 vline~;
#X obj 71 336 tabwrite~ rec;
#X obj 273 359 tabread4~ rec;
#X msg 99 233 \; rec normalize;
#X msg 273 262 0 \, 88200 2000;
#X obj 100 182 bng 15 250 50 0 empty empty empty 17 7 0 10 -262144
-1 -1;
#X obj 159 182 bng 15 250 50 0 empty empty empty 17 7 0 10 -262144
-1 -1;
#X text 457 244 basic recorder;
#X connect 2 0 5 0;
#X connect 3 0 5 0;
#X connect 4 0 6 0;
#X connect 6 0 0 0;
#X connect 6 0 0 1;
#X connect 8 0 4 0;
#X connect 9 0 7 0;
#X connect 10 0 8 0;
